# xmcd
#
# Track frame offsets:
#	150
#	17311
#	35364
#	54207
#	71142
#	86109
#	104755
#	124007
#	140737
#	156773
#	173179
#	188648
#	202364
#	217207
#	230689
#	259067
#
# Disc length: 3924 seconds
#
# Revision: 0
# Processed by: cddbd v1.5.2PL0 Copyright (c) Steve Scherf et al.
# Submitted via: dBpowerAMP V4.0
#
DISCID=f00f5210
DTITLE=Trisha Yearwood - Heaven, Heartache And The Power Of Love
DYEAR=2007
DGENRE=Country
TTITLE0=Heaven, Heartache And The Power Of Love
TTITLE1=This Is Me You're Talking To
TTITLE2=They Call It Falling For A Reason
TTITLE3=Nothin' 'Bout Memphis
TTITLE4=We Tried
TTITLE5=Let The Wind Chase You
TTITLE6=The Dreaming Fields
TTITLE7=Cowboys Are My Weakness
TTITLE8=Help Me
TTITLE9=Not A Bad Thing
TTITLE10=Nothin'  About You Is Good For Me
TTITLE11=Drown Me
TTITLE12=Sing You Back To Me
TTITLE13=Heaven, Heartache And The Power Of Love (Acoustic Version)
TTITLE14=Cowboys Are My Weakness (Acoustic Version)
TTITLE15=DATA
EXTD=
EXTT0=
EXTT1=
EXTT2=
EXTT3=
EXTT4=
EXTT5=
EXTT6=
EXTT7=
EXTT8=
EXTT9=
EXTT10=
EXTT11=
EXTT12=
EXTT13=
EXTT14=
EXTT15=
PLAYORDER=
